<svg role="img" viewBox="0 0 24 24" xmlns="http://www.w3.org/2000/svg" id="Looker--Streamline-Simple-Icons.svg" height="24" width="24"><desc>Looker Streamline Icon: https://streamlinehq.com</desc><title>Looker</title><path d="M11.9475 0c-1.1598 0.0021 -2.0982 0.944 -2.096 2.1038a2.1 2.1 0 0 0 0.356 1.166l0.895 -0.8959a0.884 0.884 0 1 1 0.565 0.564l-0.895 0.895c0.9593 0.6478 2.2621 0.3953 2.91 -0.564 0.6478 -0.9593 0.3953 -2.262 -0.564 -2.91A2.096 2.096 0 0 0 11.9475 0zm-0.835 6.1128a3.2629 3.2629 0 0 0 -0.653 -1.965l-1.164 1.162a1.667 1.667 0 0 1 -0.318 2.012l0.632 1.5449a3.2819 3.2819 0 0 0 1.503 -2.754zm-3.2499 1.666h-0.03c-0.9217 0.0009 -1.6697 -0.7455 -1.6707 -1.6673 -0.001 -0.9217 0.7454 -1.6697 1.6672 -1.6707a1.669 1.669 0 0 1 0.9195 0.275l1.152 -1.152c-1.4069 -1.141 -3.4724 -0.9257 -4.6135 0.4811s-0.9257 3.4723 0.481 4.6135a3.2799 3.2799 0 0 0 2.7275 0.6652l-0.633 -1.5439v-0.001zm4.1279 1.3359c-0.728 0 -1.452 0.106 -2.15 0.315l0.922 2.2519c2.6872 -0.6819 5.4184 0.9438 6.1002 3.631 0.6818 2.6873 -0.9439 5.4184 -3.6311 6.1002s-5.4184 -0.9439 -6.1002 -3.631c-0.5682 -2.2394 0.4655 -4.5774 2.5041 -5.6643l-0.91 -2.2449c-3.6908 1.808 -5.2173 6.2657 -3.4093 9.9567l0.0005 0.001c1.808 3.6909 6.2657 5.2173 9.9567 3.4093l0.001 -0.0005c3.6913 -1.8071 5.2187 -6.2645 3.4116 -9.9558a7.4417 7.4417 0 0 0 -6.6865 -4.1696h-0.008l-0.001 0.001z" fill="#000000" stroke-width="1"></path></svg>