<svg role="img" viewBox="0 0 24 24" xmlns="http://www.w3.org/2000/svg" id="Plotly--Streamline-Simple-Icons.svg" height="24" width="24"><desc>Plotly Streamline Icon: https://streamlinehq.com</desc><title>Plotly</title><path d="M2.021 0C0.967 0 0.111 0.883 0.111 1.973v20.054c0 1.09 0.857 1.973 1.91 1.973H21.98c1.054 0 1.91 -0.884 1.91 -1.973V1.973C23.89 0.883 23.034 0 21.98 0H2.02zM10.1 4.648a0.72 0.72 0 0 1 0.304 0.127 1.196 1.196 0 0 1 0.356 0.373 0.212 0.212 0 0 1 0.084 0.163c0.165 0.388 0.135 0.857 -0.149 1.203 -0.19 0.232 -0.429 0.305 -0.648 0.263a0.241 0.241 0 0 1 -0.096 0.04c-0.41 0.13 -0.884 -0.218 -0.994 -0.663 -0.065 -0.26 -0.087 -0.674 0.076 -0.908a0.367 0.367 0 0 1 0.082 -0.086 0.917 0.917 0 0 1 0.05 -0.264c0.077 -0.214 0.256 -0.214 0.425 -0.148a0.542 0.542 0 0 1 0.09 -0.006 1.938 1.938 0 0 1 0.158 0.008 0.277 0.277 0 0 1 0.262 -0.102zm8.43 0c0.098 0.012 0.204 0.06 0.304 0.127a1.196 1.196 0 0 1 0.355 0.373 0.212 0.212 0 0 1 0.084 0.163c0.166 0.388 0.136 0.857 -0.148 1.203 -0.19 0.232 -0.43 0.305 -0.648 0.263a0.241 0.241 0 0 1 -0.096 0.04c-0.41 0.13 -0.885 -0.218 -0.994 -0.663 -0.065 -0.26 -0.087 -0.674 0.076 -0.908a0.367 0.367 0 0 1 0.082 -0.086 0.91 0.91 0 0 1 0.049 -0.264c0.077 -0.214 0.256 -0.214 0.424 -0.148a0.57 0.57 0 0 1 0.091 -0.006 1.938 1.938 0 0 1 0.159 0.008 0.277 0.277 0 0 1 0.261 -0.102zm-13.159 0.16c0.224 -0.013 0.461 0.063 0.649 0.198a1.069 1.069 0 0 1 0.23 0.223 1.518 1.518 0 0 1 0.059 0.039c0.341 0.244 0.312 0.679 0.074 0.992l-0.004 0.008a0.91 0.91 0 0 1 -0.897 0.558c-0.302 -0.008 -0.611 -0.084 -0.82 -0.271 -0.2 -0.143 -0.34 -0.356 -0.332 -0.627a0.131 0.131 0 0 1 0.092 -0.127 1.042 1.042 0 0 1 0.342 -0.6 0.704 0.704 0 0 1 0.607 -0.393zm8.682 0.003c0.224 -0.014 0.461 0.06 0.648 0.195a1.069 1.069 0 0 1 0.229 0.224 1.518 1.518 0 0 1 0.058 0.04c0.342 0.244 0.315 0.679 0.076 0.992l-0.005 0.006a0.907 0.907 0 0 1 -0.895 0.558c-0.302 -0.008 -0.614 -0.084 -0.822 -0.271a0.73 0.73 0 0 1 -0.33 -0.627 0.131 0.131 0 0 1 0.092 -0.125 1.04 1.04 0 0 1 0.34 -0.6 0.705 0.705 0 0 1 0.61 -0.393zm-8.282 0.496a0.563 0.563 0 0 1 0.034 0.04l0.011 0.005a0.126 0.126 0 0 1 0.088 0.076 0.596 0.596 0 0 1 0.225 0.125 0.659 0.659 0 0 0 -0.078 -0.135 1.161 1.161 0 0 0 -0.28 -0.111zm8.68 0a0.563 0.563 0 0 1 0.033 0.04l0.012 0.005c0.039 0.007 0.07 0.038 0.088 0.076a0.596 0.596 0 0 1 0.225 0.125 0.659 0.659 0 0 0 -0.079 -0.135 1.153 1.153 0 0 0 -0.279 -0.111zm-4.553 0.119a1.912 1.912 0 0 0 -0.005 0.295c0.075 -0.042 0.081 -0.17 0.064 -0.262a0.322 0.322 0 0 0 -0.059 -0.033zm8.428 0a1.943 1.943 0 0 0 -0.004 0.295c0.076 -0.042 0.08 -0.17 0.063 -0.262l-0.02 -0.014a0.303 0.303 0 0 0 -0.039 -0.02zM5.55 5.65l-0.086 0.028 0.01 0.04c0.057 -0.032 0.133 -0.028 0.175 0.028a0.435 0.435 0 0 0 -0.003 -0.057 0.335 0.335 0 0 1 -0.075 -0.023c-0.008 -0.004 -0.014 -0.01 -0.021 -0.016zm8.68 0 -0.086 0.028 0.011 0.04c0.057 -0.032 0.134 -0.028 0.176 0.028a0.435 0.435 0 0 0 -0.004 -0.057 0.335 0.335 0 0 1 -0.074 -0.023 0.153 0.153 0 0 1 -0.023 -0.016zm-9.032 0.088c0.003 0.017 0.005 0.036 0.01 0.053a0.888 0.888 0 0 0 0.023 0.078c-0.026 -0.029 -0.038 -0.073 -0.033 -0.13zm8.68 0.002a0.866 0.866 0 0 0 0.033 0.13c-0.026 -0.029 -0.038 -0.072 -0.033 -0.13zm-3.18 0.02 -0.011 0.017a0.38 0.38 0 0 1 -0.13 0.237 0.183 0.183 0 0 0 -0.001 0.006 0.119 0.119 0 0 1 -0.04 0.119 0.9 0.9 0 0 1 -0.029 0.064 1.862 1.862 0 0 1 -0.148 0.285 0.572 0.572 0 0 0 0.217 -0.205c0.1 -0.156 0.147 -0.34 0.142 -0.523zm8.43 0 -0.012 0.017a0.378 0.378 0 0 1 -0.129 0.237c0 0.001 0 0.004 -0.002 0.006 0.013 0.043 -0.005 0.088 -0.039 0.119a1.163 1.163 0 0 1 -0.029 0.064 1.862 1.862 0 0 1 -0.148 0.285 0.566 0.566 0 0 0 0.216 -0.205c0.1 -0.156 0.148 -0.34 0.143 -0.523zm-9.961 0.039a1.314 1.314 0 0 0 0.004 0.133c0.017 0.185 0.078 0.383 0.219 0.513a0.59 0.59 0 0 0 0.086 0.067 1.038 1.038 0 0 1 -0.143 -0.278 2.565 2.565 0 0 1 -0.166 -0.435zm8.43 0a1.314 1.314 0 0 0 0.004 0.133c0.017 0.185 0.078 0.383 0.218 0.513a0.59 0.59 0 0 0 0.086 0.067 1.054 1.054 0 0 1 -0.142 -0.278 2.522 2.522 0 0 1 -0.166 -0.435zm-11.67 0.146a0.434 0.434 0 0 1 -0.028 0.065l0.036 0.068a0.238 0.238 0 0 0 -0.008 -0.133zm8.681 0a0.51 0.51 0 0 1 -0.029 0.065l0.035 0.068a0.241 0.241 0 0 0 -0.006 -0.133zm-9.09 0.41a0.61 0.61 0 0 1 -0.18 0.038l-0.013 0.015a0.532 0.532 0 0 0 0.229 -0.013 0.495 0.495 0 0 1 -0.035 -0.04zm8.68 0a0.61 0.61 0 0 1 -0.18 0.038l-0.013 0.015a0.532 0.532 0 0 0 0.228 -0.013 0.625 0.625 0 0 1 -0.035 -0.04zm-4.308 2.3a1.061 1.061 0 0 1 1.052 1.072v8.58c0 0.592 -0.47 1.072 -1.052 1.072 -0.583 0 -1.055 -0.48 -1.055 -1.072v-8.58c0 -0.592 0.472 -1.072 1.055 -1.073zm8.431 0a1.062 1.062 0 0 1 1.053 1.072v8.58c0 0.592 -0.47 1.072 -1.053 1.072 -0.582 0 -1.054 -0.48 -1.054 -1.072v-8.58c0 -0.592 0.472 -1.072 1.054 -1.073zm-12.95 0.105c0.224 -0.013 0.461 0.06 0.649 0.195a1.075 1.075 0 0 1 0.23 0.225 1.871 1.871 0 0 1 0.059 0.039c0.341 0.244 0.312 0.679 0.074 0.992l-0.004 0.006a0.91 0.91 0 0 1 -0.897 0.558c-0.302 -0.007 -0.611 -0.083 -0.82 -0.271 -0.2 -0.142 -0.34 -0.354 -0.332 -0.625a0.131 0.131 0 0 1 0.092 -0.127 1.042 1.042 0 0 1 0.342 -0.6 0.701 0.701 0 0 1 0.607 -0.393zm8.682 0c0.224 -0.013 0.461 0.06 0.648 0.195a1.075 1.075 0 0 1 0.229 0.225 1.871 1.871 0 0 1 0.058 0.039c0.342 0.244 0.315 0.679 0.076 0.992l-0.005 0.006a0.907 0.907 0 0 1 -0.895 0.558c-0.302 -0.007 -0.614 -0.083 -0.822 -0.271a0.727 0.727 0 0 1 -0.33 -0.625 0.131 0.131 0 0 1 0.092 -0.127 1.04 1.04 0 0 1 0.34 -0.6 0.705 0.705 0 0 1 0.61 -0.393zm-8.282 0.496a0.567 0.567 0 0 1 0.034 0.043l0.011 0.002a0.126 0.126 0 0 1 0.088 0.076 0.599 0.599 0 0 1 0.225 0.125 0.659 0.659 0 0 0 -0.078 -0.133 1.21 1.21 0 0 0 -0.28 -0.113zm8.68 0a0.567 0.567 0 0 1 0.033 0.043l0.012 0.002c0.039 0.007 0.07 0.038 0.088 0.076a0.599 0.599 0 0 1 0.225 0.125 0.659 0.659 0 0 0 -0.079 -0.133 1.2 1.2 0 0 0 -0.279 -0.113zM5.55 9.6l-0.086 0.027 0.01 0.041c0.057 -0.032 0.133 -0.029 0.175 0.027a0.437 0.437 0 0 0 -0.003 -0.054 0.323 0.323 0 0 1 -0.075 -0.026c-0.008 -0.004 -0.014 -0.01 -0.021 -0.015zm8.68 0 -0.086 0.027 0.011 0.041c0.057 -0.032 0.134 -0.029 0.176 0.027a0.437 0.437 0 0 0 -0.004 -0.054 0.323 0.323 0 0 1 -0.074 -0.026 0.153 0.153 0 0 1 -0.023 -0.015zm-9.032 0.09a0.575 0.575 0 0 0 0.032 0.123 0.164 0.164 0 0 1 -0.032 -0.124zm8.68 0a0.575 0.575 0 0 0 0.031 0.123 0.169 0.169 0 0 1 -0.031 -0.124zm-7.951 0.206a0.419 0.419 0 0 1 -0.028 0.063 18.358 18.358 0 0 1 0.036 0.07 0.237 0.237 0 0 0 -0.008 -0.133zm8.681 0a0.419 0.419 0 0 1 -0.029 0.063 18.358 18.358 0 0 1 0.035 0.07 0.241 0.241 0 0 0 -0.006 -0.133zm-9.09 0.409a0.627 0.627 0 0 1 -0.18 0.037v0.002l-0.013 0.015a0.548 0.548 0 0 0 0.229 -0.015 0.61 0.61 0 0 1 -0.035 -0.04zm8.68 0a0.627 0.627 0 0 1 -0.18 0.037v0.002l-0.013 0.015a0.548 0.548 0 0 0 0.228 -0.015l-0.035 -0.04zm-8.525 2.64c0.582 0 1.053 0.48 1.053 1.073v4.289c0 0.592 -0.47 1.072 -1.053 1.072 -0.582 0 -1.055 -0.48 -1.055 -1.072v-4.29c0 -0.592 0.473 -1.072 1.055 -1.072zm8.432 0c0.581 0 1.054 0.48 1.054 1.073v4.289c0 0.592 -0.473 1.072 -1.054 1.072 -0.583 0 -1.053 -0.48 -1.053 -1.072v-4.29c0 -0.592 0.47 -1.072 1.053 -1.072Z" fill="#000000" stroke-width="1"></path></svg>